<svg fill="#464c72" version="1.1" id="Layer_1" xmlns="http://www.w3.org/2000/svg" xmlns:xlink="http://www.w3.org/1999/xlink" x="0px" y="0px" viewBox="0 0 100 100" enable-background="new 0 0 100 100" xml:space="preserve">
  <path d="M70,0H30C13.43,0,0,13.43,0,30v40c0,16.57,13.43,30,30,30h40c16.57,0,30-13.43,30-30V30
                                                                        C100,13.43,86.57,0,70,0z M90,70c0,11.05-8.95,20-20,20H30c-11.05,0-20-8.95-20-20V30c0-11.05,8.95-20,20-20h40
                                                                        c11.05,0,20,8.95,20,20V70z"></path>
  <g>
    <path d="M45.34,46.92c0-4.52-0.13-8.62-0.4-12.3c-0.26-3.68-0.81-7.15-1.62-10.42l9.45-1.59c1.97,4.57,2.96,14.5,2.96,29.79v20.85
                                                                           H45.34v-22.5V46.92z"></path>
  </g>
</svg>
