<svg fill="#464c72" version="1.1" id="Layer_1" xmlns="http://www.w3.org/2000/svg" xmlns:xlink="http://www.w3.org/1999/xlink" x="0px" y="0px" viewBox="0 0 100 100" enable-background="new 0 0 100 100" xml:space="preserve">
  <path d="M70,0H30C13.43,0,0,13.43,0,30v40c0,16.57,13.43,30,30,30h40c16.57,0,30-13.43,30-30V30
                                                                        C100,13.43,86.57,0,70,0z M90,70c0,11.05-8.95,20-20,20H30c-11.05,0-20-8.95-20-20V30c0-11.05,8.95-20,20-20h40
                                                                        c11.05,0,20,8.95,20,20V70z" />
  <g>
    <path d="M67.48,25.77v12.91c0,2.89-0.65,5.53-1.95,7.93c-1.3,2.41-3.09,4.32-5.37,5.73c-2.28,1.42-4.85,2.13-7.68,2.13
                                                                           c-1.59,0-3.03-0.22-4.33-0.65v1.3v20.85H37.76v-22.5v-3.82c0-4.52-0.13-8.62-0.4-12.3c-0.26-3.68-0.81-7.15-1.62-10.42l9.45-1.59
                                                                           c1.2,2.84,2.02,7.62,2.45,14.35c0.24,1.15,0.8,2.08,1.7,2.78c0.89,0.7,1.93,1.05,3.14,1.05c1.35,0,2.48-0.47,3.39-1.41
                                                                           c0.91-0.94,1.37-2.1,1.37-3.5V25.77H67.48z" />
  </g>
</svg>
