<svg fill="#464c72" version="1.1" id="Layer_1" xmlns="http://www.w3.org/2000/svg" xmlns:xlink="http://www.w3.org/1999/xlink" x="0px" y="0px" viewBox="0 0 300 300" enable-background="new 0 0 300 300" xml:space="preserve">
  <path d="M231.58,14.51c29.73,0,53.91,24.18,53.91,53.91v163.16c0,29.73-24.18,53.91-53.91,53.91H68.42
                                                               c-29.73,0-53.91-24.18-53.91-53.91V68.42c0-29.73,24.18-53.91,53.91-53.91H231.58 M231.58,0.51H68.42
                                                               c-37.51,0-67.91,30.4-67.91,67.91v163.16c0,37.51,30.4,67.91,67.91,67.91h163.16c37.51,0,67.91-30.4,67.91-67.91V68.42
                                                               C299.49,30.91,269.09,0.51,231.58,0.51L231.58,0.51z"></path>
  <polygon points="58.11,76.75 58.11,60.07 223.94,60.07 201,36.73 218.61,36.73 249.75,68.41 218.61,100.09 201,100.09 223.94,76.75 
                                                               116.9,76.75 116.9,143.47 213.2,143.47 213.2,173.49 116.9,173.49 116.9,263.56 83.69,263.56 83.69,76.75 "></polygon>
</svg>
