<svg viewBox="0 0 24 24" fill="#464c72" xmlns="http://www.w3.org/2000/svg">
  <g clip-path="url(#clip0_20_20)">
    <path d="M11.9523 10.765C12.066 11.178 11.8686 11.5256 11.5874 11.8681C8.48852 15.6661 5.39565 19.4692 2.29679 23.2672C2.12928 23.4686 1.94383 23.6752 1.71052 23.8162C1.29175 24.063 0.693518 23.9875 0.346542 23.7004C-0.0423113 23.383 -0.126064 22.9095 0.208948 22.4864C0.974689 21.5193 1.76436 20.5673 2.54805 19.6102C4.62991 17.0564 6.71176 14.4975 8.80559 11.9487C8.96711 11.7523 8.93122 11.6263 8.77568 11.44C6.22121 8.45294 3.67871 5.46088 1.14219 2.46379C0.514047 1.72333 0.669589 0.776345 1.48319 0.282706C2.29081 -0.210934 3.40352 -0.0497451 4.04364 0.700788C6.13746 3.14884 8.20735 5.60696 10.2892 8.06004C10.6781 8.52346 11.0609 8.99191 11.4677 9.44526C11.8087 9.83312 12.0121 10.2512 11.9523 10.765Z"></path>
    <path d="M22.7803 0.176945C23.3008 0.171908 23.6298 0.317984 23.8452 0.635324C24.0905 1.00303 24.0307 1.35563 23.7615 1.68809C22.7145 2.97759 21.6616 4.2671 20.6147 5.55661C18.9337 7.62183 17.2586 9.68706 15.5597 11.7472C15.3563 11.9941 15.3563 12.1452 15.5656 12.392C18.144 15.4495 20.7105 18.5121 23.2709 21.5797C23.8632 22.2849 23.6897 23.2168 22.906 23.6903C22.0505 24.2091 20.9737 24.0681 20.3455 23.3276C18.3534 20.9602 16.3673 18.5776 14.3811 16.2051C13.8128 15.5251 13.2445 14.8501 12.6821 14.1701C12.0899 13.4599 12.0719 12.6791 12.6462 11.9739C15.7152 8.21118 18.7901 4.45347 21.8591 0.685695C22.1163 0.383467 22.4094 0.171908 22.7803 0.176945Z"></path>
  </g>
</svg>
