<svg viewBox="0 0 18 22" fill="#fff" xmlns="http://www.w3.org/2000/svg">
  <path fill-rule="evenodd" clip-rule="evenodd" d="M8.987 4.5C8.987 1.5 10.487 0 13.487 0C13.487 3 11.987 4.5 8.987 4.5ZM7.66 6.133C7.018 5.838 6.282 5.5 5.323 5.5C3.194 5.5 0 7.629 0 11.887C0 16.145 2.7 22 5.323 22C6.121 22 6.653 21.734 7.186 21.468C7.718 21.202 8.25 20.936 9.049 20.936C9.847 20.936 10.512 21.202 11.178 21.468C11.843 21.734 12.508 22 13.307 22C15.142 22 17.014 19.136 17.973 15.956C17.091 15.636 15.327 13.985 15.327 11.887C15.327 9.181 16.564 7.964 17.182 7.557C16.067 6.186 14.515 5.5 13.307 5.5C12.347 5.5 11.443 5.838 10.653 6.133C10.04 6.361 9.496 6.565 9.049 6.565C8.601 6.565 8.159 6.361 7.66 6.133Z" fill="white" />
</svg>
