<svg fill="#464c72" version="1.1" id="Layer_1" xmlns="http://www.w3.org/2000/svg" xmlns:xlink="http://www.w3.org/1999/xlink" x="0px" y="0px" viewBox="0 0 100 100" enable-background="new 0 0 100 100" xml:space="preserve">
  <g>
    <path d="M41.88,45.38c-2.07,0-3.81,0.72-5.23,2.15c-1.42,1.44-2.13,3.19-2.13,5.26c0,2.07,0.71,3.81,2.13,5.23
                                                                           c1.42,1.42,3.16,2.13,5.23,2.13c2.03,0,3.76-0.71,5.2-2.13c1.44-1.42,2.15-3.16,2.15-5.23c0-2.07-0.72-3.82-2.15-5.26
                                                                           C45.64,46.09,43.91,45.38,41.88,45.38z"></path>
    <path d="M86.8,0.35H13.2C6.1,0.35,0.35,6.1,0.35,13.2v73.6c0,7.09,5.75,12.84,12.84,12.84h73.6c7.09,0,12.84-5.75,12.84-12.84V13.2
                                                                           C99.65,6.1,93.9,0.35,86.8,0.35z M21.08,67.62H12.4V37.96h8.68V67.62z M21.25,34.8h-8.96v-6.72h8.96V34.8z M55.76,60.55
                                                                           c-1.44,2.38-3.37,4.26-5.8,5.66c-2.43,1.4-5.11,2.1-8.02,2.1c-2.95,0-5.66-0.7-8.13-2.1c-2.47-1.4-4.43-3.28-5.86-5.66
                                                                           c-1.44-2.38-2.15-4.98-2.15-7.82c0-2.8,0.72-5.38,2.15-7.76c1.44-2.38,3.39-4.25,5.86-5.63c2.47-1.38,5.18-2.07,8.13-2.07
                                                                           c2.91,0,5.58,0.69,8.02,2.07c2.43,1.38,4.37,3.26,5.8,5.63c1.44,2.38,2.15,4.96,2.15,7.76C57.91,55.57,57.19,58.17,55.76,60.55z
                                                                           M85.58,65.78c-2.32,1.69-5.49,2.53-9.51,2.53c-2.72,0-5.3-0.39-7.73-1.18c-2.43-0.78-4.59-1.89-6.46-3.3l3.68-5.69
                                                                           c3.52,2.03,7.03,3.05,10.52,3.05c1.57,0,2.69-0.18,3.36-0.55c0.67-0.36,1.01-0.89,1.01-1.58c0-0.65-0.34-1.14-1.03-1.47
                                                                           c-0.69-0.33-1.95-0.72-3.79-1.18c-4.18-0.96-7.21-2.15-9.11-3.59c-1.9-1.44-2.84-3.48-2.84-6.12c0-2.83,1.13-5.11,3.39-6.84
                                                                           c2.26-1.72,5.29-2.59,9.08-2.59c2.03,0,4.06,0.29,6.09,0.86c2.03,0.57,3.87,1.34,5.52,2.3l-2.99,6.09
                                                                           c-3.03-1.38-5.9-2.07-8.62-2.07c-1.15,0-2.08,0.21-2.79,0.63c-0.71,0.42-1.06,1-1.06,1.72c0,0.77,0.34,1.3,1.03,1.61
                                                                           c0.69,0.31,1.99,0.61,3.91,0.92c3.91,0.73,6.86,1.86,8.85,3.39c1.99,1.53,2.99,3.58,2.99,6.15C89.06,61.79,87.9,64.09,85.58,65.78z
                                                                           "></path>
  </g>
</svg>
