<svg viewBox="0 0 22 34" fill="#464c72" xmlns="http://www.w3.org/2000/svg">
  <g clip-path="url(#clip0_21_32)">
    <path d="M21.9297 23.7404C19.723 23.3556 17.5164 22.9708 15.2717 22.5791C14.4346 24.2077 12.9509 24.888 11.0333 24.8811C9.12343 24.8743 7.61681 24.2352 6.73414 22.5379C4.5503 22.9227 2.34363 23.3075 0 23.7198C0.0608736 22.9021 0.0837012 22.1324 0.19023 21.3697C0.448943 19.5349 1.27074 17.9269 2.70127 16.58C2.95237 16.3464 3.0589 16.099 3.03607 15.7348C2.84584 12.6219 3.21869 9.5777 4.55791 6.68468C5.56993 4.49945 7.05373 2.60971 9.07016 1.08418C9.57998 0.699357 10.1278 0.355768 10.6985 0.067153C10.904 -0.0359237 11.2997 -0.0153082 11.5051 0.0946402C12.8063 0.836792 13.9781 1.74387 14.9292 2.82274C16.0478 4.08714 16.9609 5.48899 17.6077 7.01452C18.7719 9.77698 19.198 12.6288 19.0078 15.563C18.9773 15.9959 19.0915 16.3258 19.4415 16.6625C21.2525 18.3736 21.9601 20.4832 21.983 22.8059C21.983 23.0739 21.9906 23.3487 21.9982 23.6167C22.0058 23.6305 21.9906 23.6442 21.9297 23.7404ZM20.1035 21.9263C20.1415 21.8232 20.1568 21.7957 20.1568 21.7682C20.1644 21.7064 20.1644 21.6377 20.1568 21.5758C20.0426 19.6723 19.3121 18.0162 17.7827 16.6694C17.6229 16.5319 17.4555 16.3052 17.4631 16.1265C17.5772 14.2986 17.6533 12.4707 17.0826 10.6841C16.7631 9.68077 16.5348 8.64313 16.0935 7.68796C15.1347 5.61268 13.7803 3.77791 11.6953 2.45853C11.0714 2.05997 11.0105 2.05997 10.4018 2.48602C7.82226 4.27268 6.21671 6.64345 5.33405 9.43339C4.67966 11.5224 4.51986 13.6527 4.69488 15.8104C4.72531 16.1815 4.60356 16.4357 4.30681 16.6831C3.43936 17.3909 2.84584 18.2705 2.45016 19.26C2.12297 20.0778 1.94795 20.923 1.93274 21.8576C3.89591 21.5071 5.77538 21.1704 7.66246 20.8337C7.78421 21.0604 7.88313 21.2666 7.99727 21.459C8.62883 22.5035 9.5952 23.1014 10.9268 23.1426C12.3041 23.1838 13.3237 22.6203 14.0314 21.5621C14.4651 20.9093 14.4651 20.9093 15.3097 21.0604C15.3478 21.0673 15.3782 21.0742 15.4162 21.0811C16.9837 21.3628 18.536 21.6445 20.1035 21.9263Z" />
    <path d="M10.9725 34C9.84633 32.4538 8.7506 30.9695 8.42341 29.176C8.17991 27.8497 9.03975 26.5716 10.3638 26.1181C11.2616 25.8088 12.2813 26.1387 12.9509 26.9289C13.5748 27.6711 13.7727 28.5232 13.5824 29.4096C13.2096 31.1276 12.1671 32.5569 10.9725 34ZM10.8736 31.7598C10.9801 31.7598 11.0866 31.7598 11.1855 31.7529C11.528 30.997 11.9008 30.2549 12.2128 29.4852C12.4411 28.9217 12.2356 28.3857 11.8856 27.9047C11.5127 27.3825 10.8355 27.3344 10.3409 27.7673C9.89198 28.159 9.64088 28.6675 9.81589 29.1966C10.1126 30.0625 10.5159 30.9008 10.8736 31.7598Z" />
    <path d="M10.9421 7.64677C12.8976 7.59867 14.4195 9.02113 14.4271 10.6429C14.4347 12.3814 12.9357 13.7627 11.041 13.7695C9.14628 13.7764 7.70814 12.4433 7.64727 10.7116C7.594 9.21354 9.22237 7.56431 10.9421 7.64677ZM12.8824 10.7528C12.8976 9.79077 12.0986 9.01425 11.0714 9.00051C10.0061 8.98677 9.06258 9.74266 9.0778 10.7253C9.09302 11.6736 9.89959 12.4227 10.9421 12.4364C12.0454 12.4433 12.8672 11.7355 12.8824 10.7528Z" />
  </g>
</svg>
