<svg viewBox="0 0 29 26" fill="#464c72" xmlns="http://www.w3.org/2000/svg">
  <g clip-path="url(#clip0_20_2)">
    <path d="M18.4091 4.40211C19.8954 3.36294 21.3589 2.33315 22.8308 1.31461C23.3975 0.92258 23.9623 0.519918 24.5701 0.193536C24.8231 0.0578559 25.1956 0.0522285 25.495 0.0991225C25.68 0.127884 25.9192 0.345472 25.9663 0.519917C26.0074 0.671229 25.8617 0.936336 25.7146 1.05576C25.1819 1.48843 24.6178 1.88735 24.057 2.28813C22.6504 3.29229 21.2386 4.29082 19.7483 5.34812C20.3673 5.74203 20.9353 6.11718 21.5177 6.47045C22.1713 6.86686 22.1811 6.86373 22.8151 6.4073C24.4106 5.25746 25.9944 4.09324 27.601 2.95715C27.8768 2.76207 28.2298 2.61639 28.5657 2.56825C28.7586 2.54073 29.1069 2.7108 29.1723 2.87087C29.2455 3.05094 29.1566 3.40546 29.0017 3.53614C28.2441 4.17577 27.452 4.77851 26.6519 5.37063C25.6048 6.14594 24.5394 6.89875 23.4224 7.70407C23.6577 7.87227 23.8747 8.00732 24.0662 8.16989C24.5976 8.62069 25.1852 9.03023 25.6264 9.55294C26.2885 10.337 26.3205 11.3374 26.3101 12.2897C26.2963 13.5689 26.2022 14.8501 26.0865 16.1256C26.0264 16.7877 25.5133 17.2348 25.0329 17.6618C24.7734 17.8919 24.4721 18.0814 24.178 18.2727C23.8786 18.4678 23.9047 18.626 24.1819 18.8217C25.4623 19.7277 26.7382 20.6399 28.0102 21.5565C28.3553 21.8048 28.688 22.0705 29.0148 22.3406C29.237 22.5244 29.4194 22.7439 29.252 23.0459C29.0867 23.3441 28.7834 23.5023 28.4683 23.4092C28.1115 23.3035 27.767 23.1128 27.4618 22.9002C26.0303 21.9011 24.6159 20.88 23.1897 19.8734C23.0112 19.7477 22.8099 19.6439 22.6047 19.5632C22.3027 19.4444 22.0491 19.3975 21.7458 19.6864C21.3432 20.0697 20.834 20.3529 20.3569 20.6599C20.0667 20.8463 20.1372 20.9832 20.3693 21.1439C21.7667 22.1149 23.1766 23.0703 24.5512 24.0707C25.0937 24.4658 25.8002 24.7147 26.0539 25.4131C26.0728 25.465 26.0905 25.5169 26.1133 25.5819C25.865 25.7063 25.6336 25.8352 25.3917 25.9408C25.0414 26.094 24.7544 25.9221 24.4819 25.7401C23.2609 24.9248 22.0445 24.1032 20.8229 23.2885C20.1778 22.859 19.5215 22.445 18.8784 22.0124C18.6457 21.8554 18.4868 21.8923 18.2568 22.0505C17.4142 22.6295 16.6109 23.2716 15.5913 23.5767C14.5814 23.8794 13.6448 23.7093 12.7702 23.1972C12.1885 22.8564 11.6284 22.4775 11.0832 22.0849C10.7858 21.8704 10.5538 21.8629 10.2538 22.073C8.76157 23.1141 7.25889 24.1413 5.75882 25.1718C5.45619 25.3793 5.17317 25.6388 4.83656 25.7683C4.52674 25.887 4.15417 25.9039 3.81494 25.8827C3.65742 25.8727 3.39139 25.6682 3.38943 25.5482C3.38486 25.3231 3.46656 25.0111 3.63519 24.8816C4.41301 24.2845 5.23331 23.7381 6.03792 23.1735C6.98698 22.5082 7.93735 21.8435 8.88511 21.1758C9.01191 21.0864 9.12564 20.9801 9.27597 20.8563C8.77856 20.4999 8.3256 20.1741 7.87133 19.8502C7.68832 19.7196 7.51838 19.5557 7.31314 19.4713C6.88371 19.2944 6.54709 19.5514 6.23204 19.7733C4.68361 20.8631 3.15151 21.9742 1.59262 23.0497C1.33313 23.2285 0.971023 23.3341 0.651401 23.3454C0.466425 23.3516 0.18602 23.1353 0.108239 22.9559C0.0454907 22.8114 0.159222 22.4963 0.303019 22.3863C1.44555 21.5084 2.61293 20.6606 3.77442 19.8052C4.24699 19.4576 4.71956 19.1093 5.19801 18.7698C5.42547 18.6085 5.42482 18.4559 5.22023 18.2846C4.97447 18.0783 4.75028 17.84 4.48033 17.6694C3.55676 17.0854 3.24694 16.2125 3.22603 15.2265C3.19661 13.8559 3.19335 12.4841 3.22603 11.1142C3.24825 10.1794 3.68879 9.42102 4.47445 8.84954C4.88885 8.54816 5.29083 8.23054 5.69738 7.91916C5.92027 7.74847 5.95099 7.64217 5.66797 7.44522C4.02933 6.30538 2.4103 5.13929 0.789315 3.97632C0.599111 3.84001 0.427861 3.67744 0.261841 3.51488C-0.163669 3.09846 -0.0682398 2.68892 0.531134 2.59388C0.831147 2.54636 1.23117 2.6364 1.4802 2.80647C2.87568 3.75685 4.23784 4.75225 5.61306 5.72952C6.05557 6.04403 6.51049 6.3429 6.9458 6.66553C7.25104 6.89187 7.49811 6.68303 7.71446 6.56174C8.1988 6.28975 8.64784 5.96149 9.11387 5.65887C9.48121 5.42002 9.49559 5.32311 9.14459 5.06863C7.39876 3.80312 5.64836 2.54324 3.89991 1.28148C3.87638 1.26459 3.84958 1.25084 3.8254 1.23396C3.51689 1.01387 3.2208 0.768143 3.38682 0.354851C3.50382 0.0634829 4.18163 -0.109712 4.54765 0.078489C5.03003 0.326714 5.4928 0.616207 5.9353 0.925707C7.46151 1.99364 8.97792 3.07408 10.4917 4.15826C10.7394 4.33521 10.9584 4.37022 11.2192 4.1964C11.597 3.94505 12.0107 3.73747 12.3657 3.46048C13.6932 2.42381 15.6207 2.44445 17.2495 3.60679C17.6293 3.87815 18.0202 4.13638 18.4091 4.40211ZM14.9226 17.6537C15.8449 17.7162 16.6868 17.488 17.4404 16.9616C19.6516 15.4172 21.8445 13.8484 24.0819 12.3397C25.4368 11.4256 25.41 9.6311 24.2061 8.72323C23.5642 8.23929 22.8681 7.82099 22.2014 7.36581C20.902 6.47983 19.5902 5.6101 18.3143 4.69348C17.109 3.82688 15.8521 3.11909 14.2749 3.35544C13.6677 3.44673 12.9931 3.56302 12.5081 3.88628C10.1656 5.44566 7.89094 7.0982 5.56273 8.67884C4.17117 9.6236 4.27052 11.4043 5.46992 12.2884C6.32617 12.9199 7.23797 13.4814 8.12102 14.0798C9.37532 14.9289 10.6427 15.7617 11.8735 16.6414C12.7859 17.2936 13.7494 17.7338 14.9226 17.6537ZM11.2767 21.1833C11.4081 21.3152 12.1238 21.8035 12.4454 22.0105C12.948 22.3331 13.4337 22.1887 13.5049 21.6228C13.582 21.0088 13.603 20.3623 13.4807 19.7608C13.4043 19.3832 13.0938 18.9624 12.7598 18.7335C10.2969 17.046 7.8027 15.4003 5.31501 13.7459C4.79342 13.3989 4.30516 13.5496 4.2313 14.1392C4.15548 14.7394 4.15025 15.3672 4.25026 15.9618C4.30843 16.3082 4.58034 16.6671 4.85551 16.9222C5.21566 17.2554 5.66535 17.5049 6.09544 17.7606C6.20067 17.8232 6.30852 17.6825 6.37388 17.62C5.97713 17.2304 5.74117 17.0891 5.32089 16.8471C4.77904 16.5351 4.55288 16.0556 4.49863 15.4978C4.46334 15.1315 4.48948 14.7544 4.53785 14.388C4.60909 13.8509 4.76139 13.7953 5.21435 14.0979C7.55302 15.6567 9.89169 17.2167 12.2297 18.7767C13.1846 19.4138 13.5468 20.4967 13.165 21.5628C13.0631 21.8473 12.9069 21.9217 12.6363 21.7241C12.3755 21.5334 11.9532 21.2114 11.6676 21.0595C11.5604 21.0007 11.5231 21.1833 11.2767 21.1833ZM17.7116 21.3771C17.7077 21.3258 17.3888 21.207 17.2705 21.2664C17.0345 21.3852 16.8279 21.5553 16.6051 21.6979C16.258 21.9204 16.0933 21.8729 16.0377 21.4709C15.9776 21.0357 15.9063 20.5737 15.9992 20.1554C16.0861 19.7627 16.2815 19.2825 16.5979 19.0643C19.0771 17.3542 21.5987 15.7004 24.1021 14.0216C24.4113 13.814 24.6022 13.9072 24.6348 14.2136C24.6878 14.7063 24.7172 15.209 24.6721 15.7004C24.6263 16.2044 24.3322 16.5939 23.8622 16.8665C23.4714 17.0935 23.1086 17.3649 22.7341 17.6168C22.7419 17.6637 23.0589 17.7894 23.1635 17.7306C23.4838 17.5499 23.7694 17.3136 24.0884 17.131C24.759 16.749 25.0231 16.1494 25.076 15.4516C25.1041 15.0846 25.0806 14.7082 25.0296 14.3424C24.9165 13.5271 24.4838 13.3526 23.7832 13.8197C21.4099 15.4022 19.0372 16.9853 16.6645 18.5691C15.6599 19.2394 15.2481 20.6887 15.7501 21.7791C15.9449 22.2031 16.2789 22.31 16.6855 22.0586C17.0351 21.8429 17.3705 21.6053 17.7116 21.3771ZM10.2139 20.1041C9.47075 19.6076 8.73281 19.1043 7.97787 18.6247C7.89094 18.5697 7.75172 18.7304 7.61642 18.7454C8.34783 19.3363 9.04394 19.8409 9.77338 20.3085C9.88188 20.3779 10.2035 20.1597 10.2139 20.1041ZM19.0006 20.1028C19.0032 20.1504 19.3111 20.296 19.4039 20.2366C20.1444 19.7646 20.87 19.2719 21.6007 18.7854C21.5935 18.7448 21.2621 18.6097 21.1654 18.6716C20.4346 19.1356 19.7196 19.6226 19.0006 20.1028Z" />
    <path d="M24.0884 10.2995C24.1335 11.0129 23.6041 11.3687 23.0975 11.7244C21.1745 13.0744 19.2261 14.3911 17.3253 15.7686C16.343 16.4801 15.2893 16.8771 14.0742 16.6789C13.5605 16.5952 13.0291 16.3813 12.5983 16.0981C10.8754 14.9639 9.18969 13.7784 7.48831 12.6135C6.89416 12.2071 6.251 11.8539 5.70718 11.3931C4.88427 10.6959 4.95944 9.7724 5.75294 9.19842C7.99291 7.57839 10.2825 6.02151 12.5637 4.454C13.7585 3.63304 15.6102 3.75246 16.7874 4.60093C18.0018 5.47566 19.2607 6.29412 20.5013 7.13571C21.5151 7.82349 22.5406 8.49563 23.54 9.20217C23.9047 9.4604 24.1145 9.83868 24.0884 10.2995ZM15.0645 5.96524C15.0645 7.19823 15.0645 8.38809 15.0645 9.64985C15.9449 8.97895 16.7717 8.34932 17.6312 7.69468C16.7783 7.10445 15.9939 6.5611 15.2083 6.01963C15.1762 5.99712 15.1324 5.99025 15.0645 5.96524ZM13.1559 9.87181C12.7683 9.61421 12.4408 9.39224 12.1088 9.17591C11.629 8.86328 11.1525 8.31931 10.6643 8.30868C10.1551 8.29743 9.63089 8.79825 9.11779 9.08212C8.71777 9.30346 8.32364 9.53605 7.92754 9.76364C7.93996 9.79991 7.95303 9.83618 7.96545 9.87244C9.6701 9.87181 11.3754 9.87181 13.1559 9.87181ZM16.1103 10.841C16.1005 10.8797 16.0913 10.9185 16.0815 10.9566C16.873 11.4368 17.6626 11.9195 18.4594 12.3928C18.5313 12.4354 18.6725 12.4541 18.7352 12.4153C19.5529 11.9076 20.3621 11.3874 21.2196 10.841C19.4633 10.841 17.7868 10.841 16.1103 10.841ZM15.1207 11.278C15.1207 12.4572 15.1207 13.5964 15.1207 14.8163C15.9756 14.2398 16.7358 13.7277 17.5437 13.1832C16.7044 12.5235 15.9155 11.9033 15.1207 11.278ZM21.4739 9.91871C21.485 9.89307 21.4955 9.86744 21.5066 9.8418C21.0726 9.6017 20.6399 9.35973 20.2039 9.12276C19.7124 8.85515 19.2039 8.36308 18.73 8.39059C18.2319 8.41935 17.7633 8.94456 17.2861 9.25969C16.9933 9.45289 16.7083 9.6586 16.3331 9.91933C18.1339 9.91871 19.8039 9.91871 21.4739 9.91871ZM11.3656 7.78535C12.2284 8.37371 13.0199 8.91393 13.8317 9.46728C13.8317 8.31306 13.8317 7.22887 13.8317 6.09716C12.9957 6.66927 12.2114 7.20636 11.3656 7.78535ZM13.886 14.8419C13.886 13.6621 13.886 12.5241 13.886 11.2886C13.0578 11.9283 12.3245 12.4948 11.546 13.0962C12.3513 13.6971 13.1088 14.2623 13.886 14.8419ZM12.9238 10.9047C11.3937 10.9047 9.96881 10.9047 8.45567 10.9047C9.23675 11.4718 9.94266 11.9852 10.6473 12.4966C11.4055 11.967 12.1251 11.4637 12.9238 10.9047Z" />
  </g>
</svg>
