<svg viewBox="0 0 29 29" fill="#464c72" xmlns="http://www.w3.org/2000/svg">
  <g clip-path="url(#clip0_21_24)">
    <path d="M14.4941 0.00750327C16.776 0.00750327 19.0584 -0.0142456 21.3398 0.0183779C22.2244 0.0308059 23.123 0.0888032 23.9884 0.260724C26.6126 0.782183 28.5144 2.8732 28.8391 5.54211C28.936 6.33854 28.9857 7.14584 28.9883 7.94849C29.0023 12.3206 29.0064 16.6926 28.9857 21.0647C28.9815 21.974 28.9282 22.8942 28.7775 23.789C28.3181 26.5222 26.203 28.5091 23.4518 28.8472C22.7977 28.9275 22.1363 28.987 21.4776 28.9891C16.8293 29.001 12.1811 29.0078 7.53338 28.9845C6.67365 28.9803 5.7989 28.9083 4.95833 28.7343C2.35481 28.1958 0.47376 26.1032 0.1568 23.4473C0.0656479 22.686 0.013857 21.915 0.0112674 21.1486C-0.00219821 16.7165 -0.00634141 12.2843 0.0143749 7.85217C0.0185182 6.96719 0.076524 6.07134 0.224128 5.19982C0.686103 2.47757 2.81212 0.482875 5.56532 0.158193C6.39812 0.0598045 7.24128 0.0188956 8.08029 0.0111281C10.2182 -0.00906743 12.3561 0.00439639 14.4941 0.00439639C14.4941 0.00543206 14.4941 0.0064676 14.4941 0.00750327ZM14.5008 1.23632C14.5008 1.2327 14.5008 1.22907 14.5008 1.22493C12.4349 1.22493 10.3689 1.21095 8.30299 1.23114C7.40649 1.23995 6.50429 1.26584 5.61608 1.37821C3.79666 1.60813 2.5107 2.60599 1.74471 4.26876C1.276 5.28578 1.23664 6.37945 1.23405 7.46897C1.22421 12.0813 1.22369 16.6942 1.23612 21.3065C1.23819 21.9984 1.28584 22.6954 1.37958 23.3805C1.63698 25.2581 2.67228 26.5667 4.40262 27.3144C5.35661 27.7272 6.3831 27.7593 7.40028 27.7619C12.0003 27.7722 16.6009 27.7727 21.201 27.7598C21.9287 27.7577 22.6615 27.7127 23.3824 27.6158C25.2138 27.3693 26.509 26.3787 27.2673 24.6906C27.721 23.6803 27.7629 22.6011 27.7655 21.524C27.7759 16.9956 27.7769 12.4671 27.7634 7.93865C27.7614 7.1505 27.7168 6.3577 27.6169 5.57681C27.432 4.13516 26.7121 3.00214 25.5152 2.16635C24.4856 1.44708 23.3104 1.25497 22.1032 1.24306C19.5691 1.21923 17.0349 1.23632 14.5008 1.23632Z" />
    <path d="M16.1032 8.66257C12.5276 12.4241 8.95191 16.1857 5.2991 20.028C5.2991 16.6155 5.2991 13.3055 5.2991 9.95612C4.8335 9.95612 4.41969 9.95612 3.98413 9.95612C3.98413 9.48956 3.98413 9.06234 3.98413 8.60302C5.08831 8.60302 6.19767 8.60302 7.35365 8.60302C7.35365 10.1068 7.35365 11.6215 7.35365 13.233C8.00569 12.6333 8.58524 12.102 9.1627 11.5687C10.1768 10.6324 11.1877 9.69306 12.2054 8.76096C12.2966 8.67759 12.426 8.58542 12.539 8.58386C13.7125 8.57092 14.8861 8.5761 16.0602 8.5761C16.0742 8.60509 16.0887 8.63358 16.1032 8.66257Z" />
    <path d="M13.5592 19.4894C13.8648 19.4894 14.1398 19.5019 14.4133 19.4863C14.8276 19.463 14.9244 19.3558 14.9602 18.9323C14.9669 18.8499 14.9757 18.7681 14.9861 18.6594C15.5874 18.6594 16.1778 18.6594 16.7806 18.6594C16.7806 19.4107 16.7806 20.1367 16.7806 20.8835C15.1093 20.8835 13.4588 20.8835 11.7238 20.8835C11.7595 20.1233 11.7289 19.3636 11.8589 18.6329C11.9169 18.3057 12.2562 17.9867 12.5395 17.7495C13.1366 17.2498 13.7809 16.8071 14.4055 16.34C14.492 16.2752 14.5774 16.2095 14.6593 16.1385C14.9073 15.9236 15.0451 15.6585 14.8954 15.3416C14.7525 15.0387 14.4676 14.9781 14.16 15.0278C13.8151 15.0832 13.5846 15.2727 13.5499 15.6347C13.5297 15.8449 13.5463 16.0588 13.5463 16.2872C12.9755 16.2872 12.4633 16.2872 11.8978 16.2872C11.8978 15.6844 11.8905 15.0889 11.9066 14.4939C11.9086 14.4157 12.0143 14.309 12.0977 14.2681C13.3049 13.6778 14.5583 13.5504 15.8292 14.0051C16.6097 14.2842 16.9816 15.2127 16.69 16.1665C16.5802 16.5254 16.3487 16.8961 16.0685 17.1426C15.4216 17.7117 14.7085 18.2052 14.0269 18.735C13.7944 18.9152 13.5245 19.0798 13.5592 19.4894Z" />
    <path d="M22.5004 14.0289C22.5004 12.8855 22.4978 11.8193 22.5061 10.7531C22.5066 10.678 22.5698 10.5625 22.634 10.5345C23.399 10.2016 24.1696 9.88154 25.0117 9.52734C25.0117 9.80076 25.0112 10.0094 25.0117 10.2181C25.0133 11.0218 25.0205 11.825 25.0112 12.6287C25.0097 12.7389 24.9548 12.9104 24.8745 12.9487C24.11 13.3122 23.3353 13.6529 22.5004 14.0289Z" />
    <path d="M21.7945 14.0242C21.4045 13.8482 21.0596 13.6928 20.7147 13.5364C20.3112 13.3536 19.9026 13.1812 19.509 12.9787C19.4059 12.9259 19.2847 12.7809 19.2827 12.6768C19.2656 11.6588 19.2723 10.6402 19.2723 9.57605C19.3857 9.6066 19.4743 9.62058 19.5551 9.65372C20.2304 9.93077 20.9063 10.2068 21.576 10.4973C21.6656 10.5361 21.7836 10.6506 21.7847 10.7313C21.7987 11.8084 21.7945 12.8855 21.7945 14.0242Z" />
    <path d="M19.3442 8.9645C20.2594 8.66571 21.1445 8.37624 22.0312 8.08988C22.0855 8.07227 22.1544 8.06347 22.2072 8.08004C23.1172 8.36692 24.0256 8.65794 24.9397 9.02302C24.3602 9.23636 23.761 9.40828 23.2063 9.67342C22.4859 10.0167 21.8173 10.0271 21.0958 9.67342C20.5727 9.41657 19.9999 9.2607 19.4494 9.05875C19.4287 9.05046 19.4142 9.02768 19.3442 8.9645Z" />
  </g>
</svg>
